PathFileType	4	(X/Y/Z)	/Users/niels/Desktop/University/Third Semester/Perception and Action/Exam/Gymnastics Motion Tracking/Code for Gym Tracking/Analyzed Data/Webcam_Backflip/id1_2_baseline_Sports2D/id1_2_baseline_Sports2D_px_person00.trc
DataRate	CameraRate	NumFrames	NumMarkers	Units	OrigDataRate	OrigDataStartFrame	OrigNumFrames
29.874476987447697	29.874476987447697	9	22	m	29.874476987447697	29	239
Frame#	Time	Hip			RHip			RKnee			RAnkle			RBigToe			RSmallToe			RHeel			LHip			LKnee			LAnkle			LBigToe			LSmallToe			LHeel			Neck			Head			Nose			RShoulder			RElbow			RWrist			LShoulder			LElbow			LWrist		
		X1	Y1	Z1	X2	Y2	Z2	X3	Y3	Z3	X4	Y4	Z4	X5	Y5	Z5	X6	Y6	Z6	X7	Y7	Z7	X8	Y8	Z8	X9	Y9	Z9	X10	Y10	Z10	X11	Y11	Z11	X12	Y12	Z12	X13	Y13	Z13	X14	Y14	Z14	X15	Y15	Z15	X16	Y16	Z16	X17	Y17	Z17	X18	Y18	Z18	X19	Y19	Z19	X20	Y20	Z20	X21	Y21	Z21	X22	Y22	Z22
29	0.9707282913165266	0.9300540849319338	-0.5960562325768723	0.0	0.9286000297842337	-0.5941051805322053	0.0	0.9355229173029379	-0.6979092054252581	0.0	0.9250399512260568	-0.8092527570706127	0.0	0.9729531708466344	-0.8268296362235796	0.0	0.9651083044616494	-0.8295482885205943	0.0	0.9148246612493245	-0.8249920639369642	0.0	0.9367713071653605	-0.593110862223323	0.0	0.9389026956410372	-0.6977887240575722	0.0	0.9275724805150877	-0.8052791413017694	0.0	0.9701235331114775	-0.8262192278232338	0.0	0.9660918913927488	-0.8226170912193512	0.0	0.9133004956331996	-0.8191990965025381	0.0	0.9554847774353092	-0.438742601121204	0.0	0.9828075555215338	-0.3703133473576485	0.0	0.9944655569064444	-0.41481631012086706	0.0	0.9440416077433322	-0.4581710668307654	0.0	1.003805788375901	-0.502491165731736	0.0	1.072122524492597	-0.49042789552097643	0.0	0.9492198717427346	-0.4556582716336725	0.0	1.0001788967381167	-0.49929177547008385	0.0	1.0639109850534272	-0.48997865323991013	0.0
30	1.004201680672269	0.9300104490241148	-0.5954764105533573	0.0	0.9286684824778867	-0.5931779342302888	0.0	0.9354855065044329	-0.6977049081028861	0.0	0.9250294697210223	-0.8092596626364527	0.0	0.9732813511113617	-0.8267442561720583	0.0	0.96488102919155	-0.8295456148349258	0.0	0.9146699239891466	-0.8249386627291693	0.0	0.9363031888408845	-0.5921140332858144	0.0	0.9390207522001763	-0.697479850060883	0.0	0.9276057304049481	-0.8051792629359632	0.0	0.970263751859538	-0.8264039134677406	0.0	0.96623606617446	-0.8228035237282884	0.0	0.9129774593509673	-0.8188300291309119	0.0	0.9562073064636519	-0.43823347894926284	0.0	0.9825771886597628	-0.36985823146391367	0.0	0.9947694554241757	-0.41437094398894797	0.0	0.9452786305397193	-0.4578013950216316	0.0	1.0068555853931624	-0.49881847771712595	0.0	1.0751366575668002	-0.48425591533342016	0.0	0.9504009766243308	-0.4550924155949813	0.0	1.0030485206870812	-0.4956305198683596	0.0	1.0659543293358151	-0.48389922923820644	0.0
31	1.037675070028011	0.9300692368830248	-0.5948673673528485	0.0	0.9287991497153958	-0.5922513720424479	0.0	0.935479144953545	-0.6975022058675779	0.0	0.9250741847530756	-0.8090983773384668	0.0	0.9733894736435884	-0.8265893731764614	0.0	0.9644827893175523	-0.8295439976987755	0.0	0.914626049694786	-0.8248620317065068	0.0	0.9362054543075113	-0.5911409746506263	0.0	0.9391774141819115	-0.6971745170583328	0.0	0.9277128920328707	-0.8049045391897295	0.0	0.970281700537462	-0.82624050240881	0.0	0.966282408152916	-0.8226358727636658	0.0	0.9128750360546978	-0.8185356568240177	0.0	0.9568016942756558	-0.437765023258124	0.0	0.982232502313401	-0.3692703709547702	0.0	0.9949594373253936	-0.41381261242287815	0.0	0.9462562315288331	-0.4574027995103992	0.0	1.0095016037946387	-0.4954709910609498	0.0	1.0779113360989345	-0.4789290400375065	0.0	0.9512317928683609	-0.4545657730800559	0.0	1.005358452070138	-0.4923139184873298	0.0	1.0679587311686076	-0.4786330079334352	0.0
32	1.0711484593837535	0.9301821039541722	-0.5943464798801763	0.0	0.9289340774025574	-0.5914074394679202	0.0	0.9355573816544862	-0.6972875741996352	0.0	0.9251590877150618	-0.8087742662945049	0.0	0.973179387982	-0.82633849745265	0.0	0.9639017958392824	-0.8294656956371448	0.0	0.9146550799189312	-0.8247200172542337	0.0	0.9363966196940848	-0.5903046717447096	0.0	0.9393269807311492	-0.6968780893082911	0.0	0.9278430237836719	-0.8044419099985253	0.0	0.9701173617888154	-0.8257059637251081	0.0	0.9661587803106608	-0.8221011344756877	0.0	0.9129867367808939	-0.8182751022791538	0.0	0.9572064792763016	-0.4373848464291956	0.0	0.9818519673226335	-0.36859570982171047	0.0	0.9950774570017661	-0.41318360480104094	0.0	0.9470310742391852	-0.4569849782514577	0.0	1.0117751832874842	-0.49279650564849303	0.0	1.0805236157468356	-0.47507271988974664	0.0	0.9515559447212449	-0.45411969743261316	0.0	1.0070677788062492	-0.48976560260291135	0.0	1.0701121026222862	-0.47483180584514856	0.0
33	1.1046218487394959	0.930263411484808	-0.5939856272861951	0.0	0.9289870664715959	-0.5907185217903351	0.0	0.9357601698595787	-0.6970537685127969	0.0	0.9252752824390063	-0.8082969976085437	0.0	0.972612550279858	-0.825975887699568	0.0	0.9631186759272757	-0.8292762155823432	0.0	0.9147066859404226	-0.8244606778736387	0.0	0.9367648694901223	-0.5896931362084619	0.0	0.9394244277713237	-0.6965676947741327	0.0	0.9279778950122559	-0.8038019113166663	0.0	0.9697128487181066	-0.8248738052651865	0.0	0.9658541624089902	-0.8212987902336457	0.0	0.9132804538499202	-0.8180210582313716	0.0	0.9574434076499386	-0.4371357463617211	0.0	0.9815627579061341	-0.36786589826191635	0.0	0.9951798733124876	-0.4125008866609896	0.0	0.9476682536809524	-0.4566089683898973	0.0	1.013649689046973	-0.4911789359153374	0.0	1.0829487084469671	-0.4735364504130003	0.0	0.951381921814211	-0.4537961064024775	0.0	1.0081318121140093	-0.4883738816967728	0.0	1.0725115987047933	-0.4733337108377006	0.0
34	1.138095238095238	0.9302170766231819	-0.5938026946014411	0.0	0.9288785090899148	-0.5902415432781702	0.0	0.9361150114381271	-0.6968214431166119	0.0	0.9254403576862097	-0.8076884518942488	0.0	0.9717751155396908	-0.8255093767733804	0.0	0.9622012402825144	-0.8290094393707782	0.0	0.9147560451042347	-0.8240434438713841	0.0	0.9371761197823567	-0.5893597420918594	0.0	0.9394633864954749	-0.6962165793741709	0.0	0.9281348004470216	-0.8030469818311824	0.0	0.9691074040742911	-0.8239423546544848	0.0	0.9654731826754785	-0.8204637141194613	0.0	0.9137316245145378	-0.8178329330283068	0.0	0.9576326883717281	-0.43705516251209303	0.0	0.9815392870178419	-0.3671036310978204	0.0	0.9953304034539439	-0.4117808288386122	0.0	0.9482306459645821	-0.4563826010373827	0.0	1.0149974795198835	-0.4909840513736744	0.0	1.0849526730126722	-0.4753381379304374	0.0	0.9508819554818245	-0.45363742617816205	0.0	1.008490982141443	-0.48843849943564527	0.0	1.0749882140824554	-0.475085664078616	0.0
35	1.1715686274509804	0.9299753811609615	-0.593771762006952	0.0	0.9285759527431894	-0.5899997103696856	0.0	0.93666500865233	-0.696623813642744	0.0	0.9256605198515474	-0.8069943910280176	0.0	0.9708689598168477	-0.824976549993614	0.0	0.9613209776550234	-0.8287190924380375	0.0	0.9148050823261299	-0.8234683163865296	0.0	0.9374758045909168	-0.5893031492274419	0.0	0.9395051834848757	-0.6958092738936463	0.0	0.9283302992181481	-0.8023082936994665	0.0	0.9684911631618431	-0.8232135427305084	0.0	0.9652219019954178	-0.8199311167978067	0.0	0.9143187155031857	-0.8178801847580431	0.0	0.9579601951188584	-0.4371389952257943	0.0	0.9819910081495903	-0.36638698875712283	0.0	0.995614436699199	-0.41109702160576145	0.0	0.9487966601253405	-0.45637745318638434	0.0	1.015580682527757	-0.49250584496484473	0.0	1.0860461918136768	-0.48147583248289694	0.0	0.9503001373057336	-0.453661181014006	0.0	1.0080474273731954	-0.49018285954798624	0.0	1.0769657681244935	-0.4809675345860623	0.0
36	1.2050420168067226	0.9295520020052499	-0.593822816932025	0.0	0.9281498177178394	-0.5899623992627557	0.0	0.9374662550709584	-0.696455390885276	0.0	0.9258851631092195	-0.806297054875758	0.0	0.9701560915577746	-0.8244381093225533	0.0	0.9607054955501503	-0.8284242872297968	0.0	0.9148542636136171	-0.82279758139908	0.0	0.9375085333593246	-0.5894587575791951	0.0	0.93967430620299	-0.6953380958025452	0.0	0.9285431238695672	-0.8017734018870293	0.0	0.9681910546524766	-0.8230189920384536	0.0	0.9653395532072268	-0.8200434995553022	0.0	0.9149762745060112	-0.8183991288144257	0.0	0.958614880849538	-0.43732611636274754	0.0	0.9831380071946058	-0.36589571054292525	0.0	0.9961857743581656	-0.41059542102080854	0.0	0.9494662702386808	-0.4565617847923498	0.0	1.0150345805221876	-0.49592137200647923	0.0	1.0854520282989324	-0.4926097214082652	0.0	0.9498879339373624	-0.45382722576079126	0.0	1.0066645362257491	-0.4937237064145507	0.0	1.0774007299889035	-0.49151583014641315	0.0
37	1.238515406162465	0.9290655269585084	-0.5939075229448143	0.0	0.927789362212947	-0.5900918371317043	0.0	0.9385532893503665	-0.696290656297722	0.0	0.9260483499680461	-0.8057218295448263	0.0	0.9698900138554617	-0.8239838395536874	0.0	0.9605763419954482	-0.8281429363542174	0.0	0.914888777990333	-0.8221687837255807	0.0	0.9371332713225473	-0.5897453035327243	0.0	0.9401038229292985	-0.6948326482324366	0.0	0.9287082974291728	-0.8016484553181525	0.0	0.968574583294203	-0.8236329557393964	0.0	0.9659996712797211	-0.8210534394177826	0.0	0.9155732389236564	-0.8195959174786313	0.0	0.9597346271562676	-0.4375505114208635	0.0	0.9851890860399629	-0.36586415191332905	0.0	0.9972793454758075	-0.4104496209015395	0.0	0.9503710606269412	-0.4568573457679479	0.0	1.012863771112028	-0.501246411524753	0.0	1.0820777772507362	-0.5087295291385378	0.0	0.9499060586982744	-0.45407660320080717	0.0	1.0041176817944606	-0.4990117939884257	0.0	1.0748681797190525	-0.5066370400880976	0.0
